<mxfile host="app.diagrams.net" modified="2023-09-11T09:08:34.157Z" agent="Mozilla/5.0 (X11; Ubuntu; Linux x86_64; rv:109.0) Gecko/20100101 Firefox/117.0" etag="GY1D-DnTQKG3MWiEvg_I" version="21.7.2" type="device">
  <diagram name="Página-1" id="cFH4Zs0XzxMtTWMoeqnH">
    <mxGraphModel dx="1434" dy="766" grid="1" gridSize="10" guides="1" tooltips="1" connect="1" arrows="1" fold="1" page="1" pageScale="1" pageWidth="827" pageHeight="1169" math="0" shadow="0">
      <root>
        <mxCell id="0" />
        <mxCell id="1" parent="0" />
        <mxCell id="L7TE8MquXp0Y-iAcw-yK-4" style="edgeStyle=orthogonalEdgeStyle;rounded=0;orthogonalLoop=1;jettySize=auto;html=1;dashed=1;" edge="1" parent="1" source="L7TE8MquXp0Y-iAcw-yK-1" target="L7TE8MquXp0Y-iAcw-yK-2">
          <mxGeometry relative="1" as="geometry" />
        </mxCell>
        <mxCell id="L7TE8MquXp0Y-iAcw-yK-1" value="&lt;div&gt;Camada de Apresentação&lt;/div&gt;" style="shape=folder;fontStyle=1;spacingTop=10;tabWidth=40;tabHeight=14;tabPosition=left;html=1;whiteSpace=wrap;" vertex="1" parent="1">
          <mxGeometry x="260" y="150" width="182" height="130" as="geometry" />
        </mxCell>
        <mxCell id="L7TE8MquXp0Y-iAcw-yK-5" style="edgeStyle=orthogonalEdgeStyle;rounded=0;orthogonalLoop=1;jettySize=auto;html=1;dashed=1;" edge="1" parent="1" source="L7TE8MquXp0Y-iAcw-yK-2" target="L7TE8MquXp0Y-iAcw-yK-3">
          <mxGeometry relative="1" as="geometry" />
        </mxCell>
        <mxCell id="L7TE8MquXp0Y-iAcw-yK-2" value="Camada de Regras de Negócio" style="shape=folder;fontStyle=1;spacingTop=10;tabWidth=40;tabHeight=14;tabPosition=left;html=1;whiteSpace=wrap;" vertex="1" parent="1">
          <mxGeometry x="260" y="360" width="182" height="130" as="geometry" />
        </mxCell>
        <mxCell id="L7TE8MquXp0Y-iAcw-yK-3" value="Camada de Persistência de Dados" style="shape=folder;fontStyle=1;spacingTop=10;tabWidth=40;tabHeight=14;tabPosition=left;html=1;whiteSpace=wrap;" vertex="1" parent="1">
          <mxGeometry x="260" y="570" width="182" height="130" as="geometry" />
        </mxCell>
      </root>
    </mxGraphModel>
  </diagram>
</mxfile>
